<svg style="height: 34px;" preserveAspectRatio="xMidYMid meet" viewBox="0 0 277.000000 89.000000" height="34px" version="1.0" xmlns="http://www.w3.org/2000/svg">
  <g transform="translate(0.000000,89.000000) scale(0.100000,-0.100000)" fill="#000000" stroke="none">
    <path d="M 1168 650 C 1137 645 1085 634 1053 626 C 1011 616 940 612 795 612 C 641 613 577 609 516 596 C 345 559 235 499 177 411 C 155 380 151 365 159 357 C 167 349 170 350 170 363 C 170 389 233 453 287 483 C 403 545 658 587 833 571 L 900 565 L 869 545 C 779 487 742 360 789 271 C 807 239 815 253 800 290 C 782 333 792 411 820 450 C 854 498 955 560 999 560 C 1042 560 1217 534 1515 485 C 1784 441 1856 432 1986 424 C 2155 413 2353 446 2463 502 C 2512 527 2592 599 2584 612 C 2580 617 2571 615 2562 607 C 2552 599 2525 582 2500 569 C 2459 547 2443 545 2315 546 C 2200 546 2145 552 2005 579 C 1686 640 1602 651 1410 655 C 1308 657 1199 655 1168 650 Z M 1560 606 C 1574 604 1635 594 1695 585 C 1756 576 1841 562 1885 554 C 1929 546 1981 537 2000 534 C 2019 531 2064 524 2100 519 C 2173 508 2385 506 2403 516 C 2410 520 2411 519 2407 514 C 2387 492 2284 478 2115 475 C 1916 471 1891 473 1542 531 C 1408 552 1254 576 1199 582 C 1145 588 1102 596 1104 598 C 1122 616 1479 622 1560 606 Z" class=""/>
  </g>
</svg>
